<svg width="60" height="57" viewBox="0 0 60 57" fill="none" xmlns="http://www.w3.org/2000/svg">
<path d="M6.62109 17.5371C5.68359 16.5996 4.9707 15.5352 4.48242 14.3438C3.99414 13.1523 3.75 11.9023 3.75 10.5938C3.75 9.20703 4.00391 7.92773 4.51172 6.75586C5.01953 5.58398 5.71289 4.55859 6.5918 3.67969C7.4707 2.80078 8.51562 2.11719 9.72656 1.62891C10.9375 1.14063 12.2168 0.886719 13.5645 0.867188C14.8535 0.867188 16.1035 1.0918 17.3145 1.54102C18.5254 1.99023 19.5996 2.68359 20.5371 3.62109L30.8789 13.9629L28.2129 16.6289L22.5 10.916L13.916 19.5L19.6289 25.2129L16.9629 27.8789L6.62109 17.5371ZM13.5938 4.55859C12.7539 4.55859 11.9629 4.70508 11.2207 4.99805C10.4785 5.29102 9.83398 5.7207 9.28711 6.28711C8.74023 6.85352 8.31055 7.48828 7.99805 8.19141C7.68555 8.89453 7.51953 9.69531 7.5 10.5938C7.5 11.3359 7.59766 11.9805 7.79297 12.5273C7.98828 13.0742 8.27148 13.5918 8.64258 14.0801C9.01367 14.5684 9.41406 15.0273 9.84375 15.457C10.2734 15.8867 10.7422 16.3457 11.25 16.834L19.834 8.25C19.3262 7.76172 18.8672 7.29297 18.457 6.84375C18.0469 6.39453 17.5977 6.00391 17.1094 5.67188C16.6211 5.33984 16.1133 5.06641 15.5859 4.85156C15.0586 4.63672 14.3945 4.53906 13.5938 4.55859ZM60 57L41.4551 52.3711L32.8711 43.7871L35.5371 41.1211L41.8945 47.5078C42.207 46.4922 42.6367 45.5352 43.1836 44.6367C43.7305 43.7383 44.3848 42.9082 45.1465 42.1465C45.9082 41.3848 46.7285 40.7402 47.6074 40.2129C48.4863 39.6855 49.4531 39.2461 50.5078 38.8945L44.1211 32.5371L46.7871 29.8711L55.3711 38.4551L60 57ZM54.8438 51.8438L52.4414 42.2051C51.5234 42.4004 50.6738 42.7129 49.8926 43.1426C49.1113 43.5723 48.3984 44.1094 47.7539 44.7539C47.1094 45.3984 46.5723 46.1113 46.1426 46.8926C45.7129 47.6738 45.4004 48.5234 45.2051 49.4414L54.8438 51.8438ZM50.625 2.625C51.6602 2.625 52.627 2.82031 53.5254 3.21094C54.4238 3.60156 55.2246 4.13867 55.9277 4.82227C56.6309 5.50586 57.168 6.29688 57.5391 7.19531C57.9102 8.09375 58.1055 9.07031 58.125 10.125C58.125 11.1211 57.9395 12.0781 57.5684 12.9961C57.1973 13.9141 56.6504 14.7246 55.9277 15.4277L22.3535 49.002C22.1777 50.1543 21.8164 51.209 21.2695 52.166C20.7227 53.123 20.0391 53.9727 19.2188 54.7148C18.3984 55.457 17.4707 56.0137 16.4355 56.3848C15.4004 56.7559 14.2969 56.9609 13.125 57H0V53.25C0.214844 53.25 0.439453 53.2207 0.673828 53.1621C0.908203 53.1035 1.12305 53.0156 1.31836 52.8984C1.80664 52.6445 2.20703 52.3223 2.51953 51.9316C2.83203 51.541 3.07617 51.1113 3.25195 50.6426C3.42773 50.1738 3.55469 49.6855 3.63281 49.1777C3.71094 48.6699 3.75 48.1523 3.75 47.625C3.75 46.4727 3.94531 45.3789 4.33594 44.3438C4.72656 43.3086 5.29297 42.3711 6.03516 41.5312C6.77734 40.6914 7.61719 40.0078 8.55469 39.4805C9.49219 38.9531 10.5566 38.5918 11.748 38.3965L45.3223 4.82227C46.0254 4.11914 46.8359 3.58203 47.7539 3.21094C48.6719 2.83984 49.6289 2.64453 50.625 2.625ZM13.125 53.25C13.9062 53.25 14.6387 53.1035 15.3223 52.8105C16.0059 52.5176 16.6016 52.1172 17.1094 51.6094C17.6172 51.1016 18.0176 50.5059 18.3105 49.8223C18.6035 49.1387 18.75 48.4062 18.75 47.625C18.75 46.8438 18.6035 46.1113 18.3105 45.4277C18.0176 44.7441 17.6172 44.1484 17.1094 43.6406C16.6016 43.1328 16.0059 42.7324 15.3223 42.4395C14.6387 42.1465 13.9062 42 13.125 42C12.3438 42 11.6113 42.1465 10.9277 42.4395C10.2441 42.7324 9.64844 43.1328 9.14062 43.6406C8.63281 44.1484 8.23242 44.7441 7.93945 45.4277C7.64648 46.1113 7.5 46.8438 7.5 47.625C7.5 49.6562 6.875 51.5312 5.625 53.25H13.125ZM28.3008 37.752C27.6758 36.5215 26.9434 35.4863 26.1035 34.6465C25.2637 33.8066 24.2285 33.0742 22.998 32.4492L16.5234 38.9238C17.7344 39.3926 18.7988 40.0859 19.7168 41.0039C20.6348 41.9219 21.3379 42.9961 21.8262 44.2266L28.3008 37.752ZM53.2617 12.7617C53.9844 12.0391 54.3457 11.1602 54.3457 10.125C54.3457 9.61719 54.248 9.13867 54.0527 8.68945C53.8574 8.24023 53.5938 7.84961 53.2617 7.51758C52.9297 7.18555 52.5293 6.91211 52.0605 6.69727C51.5918 6.48242 51.1133 6.38477 50.625 6.4043C49.5898 6.4043 48.7109 6.76562 47.9883 7.48828L25.752 29.6953C26.9434 30.3984 27.9492 31.1602 28.7695 31.9805C29.5898 32.8008 30.3516 33.8066 31.0547 34.998L53.2617 12.7617Z" fill="black"/>
</svg>
