<svg width="19" height="19" viewBox="0 0 19 19" fill="none" xmlns="http://www.w3.org/2000/svg">
<path d="M2.95002 13.2642C2.95002 13.2642 1.24702 15.8042 2.24302 16.7992C3.23802 17.7952 5.77802 16.0922 5.77802 16.0922" stroke="white" stroke-width="2" stroke-linecap="round" stroke-linejoin="round"/>
<path fill-rule="evenodd" clip-rule="evenodd" d="M18.506 0.536205C18.6254 0.655666 18.7126 0.803427 18.7595 0.965701C18.8064 1.12798 18.8114 1.29948 18.774 1.46421L18.457 2.86621C18.0814 4.52316 17.2445 6.03996 16.043 7.24121L11.399 11.8852C12.426 13.1572 12.759 14.3652 12.499 15.5172C12.228 16.7172 11.339 17.6032 10.787 18.1542L10.727 18.2142C10.6195 18.3215 10.489 18.403 10.3454 18.4523C10.2017 18.5017 10.0487 18.5177 9.89796 18.4991C9.74721 18.4804 9.60268 18.4277 9.47534 18.345C9.34799 18.2622 9.24119 18.1514 9.16302 18.0212L7.17002 14.6962C7.12803 14.6263 7.07766 14.5619 7.02002 14.5042L4.45002 11.9362L3.69002 11.4802L7.14902 7.63721C7.15133 7.6389 7.15366 7.64057 7.15602 7.64221L11.8 3.00021C13.0015 1.79856 14.5187 0.961618 16.176 0.586205L17.578 0.268205C17.7428 0.230995 17.9144 0.23615 18.0767 0.28319C18.2389 0.33023 18.3867 0.416621 18.506 0.536205ZM6.32202 7.06221C5.35302 6.49721 4.42202 6.34021 3.52502 6.54221C2.32502 6.81421 1.43902 7.70221 0.888017 8.25521L0.828017 8.31421C0.720692 8.42169 0.639262 8.55221 0.589907 8.69586C0.540553 8.83951 0.52457 8.99251 0.543173 9.14326C0.561775 9.29401 0.614474 9.43854 0.69727 9.56589C0.780066 9.69323 0.890783 9.80004 1.02102 9.87821L2.81702 10.9562L6.32202 7.06221Z" fill="white"/>
</svg>
