<svg width="36" height="36" viewBox="0 0 36 36" fill="none" xmlns="http://www.w3.org/2000/svg">
<path fill-rule="evenodd" clip-rule="evenodd" d="M6.94725 4.5C6.66375 4.5 6.411 4.6965 6.3135 4.992L4.5825 10.2502C4.52784 10.4165 4.5 10.5905 4.5 10.7655V12.8573C4.5 14.04 5.36325 15 6.42825 15C7.49325 15 8.35725 14.04 8.35725 12.8573C8.35725 14.0407 9.2205 15 10.2855 15C11.3505 15 12.2145 14.04 12.2145 12.8573C12.2145 14.0407 13.0778 15 14.1427 15C15.2078 15 16.0703 14.0415 16.0718 12.8588C16.0718 14.0415 16.935 15 18 15C19.065 15 19.9282 14.04 19.9282 12.8573C19.9282 14.0407 20.7922 15 21.8573 15C22.9222 15 23.7847 14.0415 23.7855 12.8588C23.7863 14.0415 24.6495 15 25.7145 15C26.7795 15 27.6427 14.04 27.6427 12.8573C27.6427 14.0407 28.506 15 29.5718 15C30.6368 15 31.5 14.04 31.5 12.8573V10.7655C31.5 10.5905 31.4722 10.4165 31.4175 10.2502L29.6865 4.99275C29.589 4.6965 29.3363 4.5 29.0527 4.5H6.94725Z" fill="#598447"/>
<path fill-rule="evenodd" clip-rule="evenodd" d="M7.5 15.9225V21.75H5.625C5.52554 21.75 5.43016 21.7895 5.35984 21.8598C5.28951 21.9302 5.25 22.0255 5.25 22.125V22.875C5.25 22.9745 5.28951 23.0698 5.35984 23.1402C5.43016 23.2105 5.52554 23.25 5.625 23.25H30.375C30.4745 23.25 30.5698 23.2105 30.6402 23.1402C30.7105 23.0698 30.75 22.9745 30.75 22.875V22.125C30.75 22.0255 30.7105 21.9302 30.6402 21.8598C30.5698 21.7895 30.4745 21.75 30.375 21.75H28.5V15.9225C28.186 15.7974 27.896 15.619 27.6427 15.3953C27.4483 15.5667 27.2322 15.712 27 15.8273V21.75H9V15.8273C8.76778 15.712 8.55169 15.5667 8.35725 15.3953C8.10525 15.6165 7.81725 15.7965 7.5 15.9225ZM27 14.4548C27.0637 14.391 27.1238 14.3228 27.18 14.25H27V14.4548ZM28.1055 14.25C28.2189 14.3969 28.3516 14.5278 28.5 14.6392V14.25H28.1055ZM7.5 14.6392C7.64916 14.5287 7.78197 14.3977 7.8945 14.25H7.5V14.6392ZM8.82 14.25H9V14.4548C8.93558 14.3905 8.87545 14.3221 8.82 14.25ZM6.375 24.75C6.27554 24.75 6.18016 24.7895 6.10983 24.8598C6.03951 24.9302 6 25.0255 6 25.125V30.75C6 30.9489 6.07902 31.1397 6.21967 31.2803C6.36032 31.421 6.55109 31.5 6.75 31.5H29.25C29.4489 31.5 29.6397 31.421 29.7803 31.2803C29.921 31.1397 30 30.9489 30 30.75V25.125C30 25.0255 29.9605 24.9302 29.8902 24.8598C29.8198 24.7895 29.7245 24.75 29.625 24.75H6.375Z" fill="#598447"/>
<path d="M10.5 19.875C10.5 19.7755 10.5395 19.6802 10.6098 19.6098C10.6802 19.5395 10.7755 19.5 10.875 19.5H13.125C13.2245 19.5 13.3198 19.5395 13.3902 19.6098C13.4605 19.6802 13.5 19.7755 13.5 19.875V21.375C13.5 21.4745 13.4605 21.5698 13.3902 21.6402C13.3198 21.7105 13.2245 21.75 13.125 21.75H10.875C10.7755 21.75 10.6802 21.7105 10.6098 21.6402C10.5395 21.5698 10.5 21.4745 10.5 21.375V19.875Z" fill="#598447"/>
<path d="M12 20.625C12 20.5255 12.0395 20.4302 12.1098 20.3598C12.1802 20.2895 12.2755 20.25 12.375 20.25H14.625C14.7245 20.25 14.8198 20.2895 14.8902 20.3598C14.9605 20.4302 15 20.5255 15 20.625V21.375C15 21.4745 14.9605 21.5698 14.8902 21.6402C14.8198 21.7105 14.7245 21.75 14.625 21.75H12.375C12.2755 21.75 12.1802 21.7105 12.1098 21.6402C12.0395 21.5698 12 21.4745 12 21.375V20.625ZM18 20.625C18 20.9234 17.8815 21.2095 17.6705 21.4205C17.4595 21.6315 17.1734 21.75 16.875 21.75C16.5766 21.75 16.2905 21.6315 16.0795 21.4205C15.8685 21.2095 15.75 20.9234 15.75 20.625C15.75 20.3266 15.8685 20.0405 16.0795 19.8295C16.2905 19.6185 16.5766 19.5 16.875 19.5C17.1734 19.5 17.4595 19.6185 17.6705 19.8295C17.8815 20.0405 18 20.3266 18 20.625Z" fill="#598447"/>
</svg>
