<svg width="15" height="16" viewBox="0 0 15 16" fill="none" xmlns="http://www.w3.org/2000/svg">
<mask id="mask0_298_8568" style="mask-type:luminance" maskUnits="userSpaceOnUse" x="0" y="0" width="15" height="16">
<path d="M7.33342 14.6668C8.20906 14.668 9.0763 14.496 9.88529 14.1609C10.6943 13.8258 11.4291 13.3342 12.0474 12.7142C12.6674 12.0958 13.1591 11.361 13.4942 10.552C13.8293 9.74305 14.0012 8.87581 14.0001 8.00017C14.0012 7.12453 13.8293 6.2573 13.4942 5.44831C13.1591 4.63933 12.6674 3.90454 12.0474 3.28617C11.4291 2.66618 10.6943 2.1745 9.88529 1.8394C9.0763 1.50429 8.20906 1.33237 7.33342 1.3335C6.45778 1.33239 5.59055 1.50432 4.78156 1.83942C3.97258 2.17453 3.23779 2.66619 2.61942 3.28617C1.99944 3.90454 1.50778 4.63933 1.17267 5.44831C0.837571 6.2573 0.665637 7.12453 0.666754 8.00017C0.665619 8.87581 0.837544 9.74305 1.17265 10.552C1.50775 11.361 1.99943 12.0958 2.61942 12.7142C3.23779 13.3341 3.97258 13.8258 4.78156 14.1609C5.59055 14.496 6.45778 14.6679 7.33342 14.6668Z" fill="white" stroke="white" stroke-linejoin="round"/>
<path d="M4.66675 8L6.66675 10L10.6667 6" stroke="black" stroke-linecap="round" stroke-linejoin="round"/>
</mask>
<g mask="url(#mask0_298_8568)">
<path d="M-0.666504 0H15.3335V16H-0.666504V0Z" fill="#598447"/>
</g>
</svg>
