<svg width="36" height="36" viewBox="0 0 36 36" fill="none" xmlns="http://www.w3.org/2000/svg">
<path d="M28.5 25.5V28.5H10.5V25.5C10.5 25.5 10.5 19.5 19.5 19.5C28.5 19.5 28.5 25.5 28.5 25.5ZM24 12C24 11.11 23.7361 10.24 23.2416 9.49994C22.7471 8.75991 22.0443 8.18314 21.2221 7.84254C20.3998 7.50195 19.495 7.41283 18.6221 7.58647C17.7492 7.7601 16.9474 8.18868 16.318 8.81802C15.6887 9.44736 15.2601 10.2492 15.0865 11.1221C14.9128 11.995 15.0019 12.8998 15.3425 13.7221C15.6831 14.5443 16.2599 15.2471 16.9999 15.7416C17.74 16.2361 18.61 16.5 19.5 16.5C20.6935 16.5 21.8381 16.0259 22.682 15.182C23.5259 14.3381 24 13.1935 24 12ZM28.8 19.59C29.6199 20.3465 30.281 21.2587 30.7446 22.2734C31.2081 23.2881 31.465 24.385 31.5 25.5V28.5H36V25.5C36 25.5 36 20.325 28.8 19.59ZM27 7.5C26.5468 7.50027 26.0964 7.57112 25.665 7.71C26.5426 8.96846 27.0131 10.4658 27.0131 12C27.0131 13.5342 26.5426 15.0315 25.665 16.29C26.0964 16.4289 26.5468 16.4997 27 16.5C28.1935 16.5 29.3381 16.0259 30.182 15.182C31.0259 14.3381 31.5 13.1935 31.5 12C31.5 10.8065 31.0259 9.66194 30.182 8.81802C29.3381 7.97411 28.1935 7.5 27 7.5ZM11.01 13.38L12.75 15.495L5.625 22.62L1.5 18.12L3.24 16.38L5.625 18.75L11.01 13.38Z" fill="#598447"/>
</svg>
