<svg width="36" height="36" viewBox="0 0 36 36" fill="none" xmlns="http://www.w3.org/2000/svg">
<g clip-path="url(#clip0_52_1728)">
<mask id="mask0_52_1728" style="mask-type:luminance" maskUnits="userSpaceOnUse" x="0" y="0" width="36" height="36">
<path d="M0 0H36V36H0V0Z" fill="white"/>
<path d="M11.1461 24.8537C11.0175 24.7251 10.9154 24.5725 10.8458 24.4045C10.7761 24.2365 10.7402 24.0564 10.7402 23.8746C10.7401 23.6927 10.7759 23.5126 10.8454 23.3446C10.9149 23.1765 11.0169 23.0238 11.1455 22.8952C11.4051 22.6353 11.7573 22.4893 12.1246 22.4892C12.3064 22.4891 12.4865 22.5249 12.6546 22.5944C12.8226 22.664 12.9753 22.7659 13.104 22.8945C14.0721 23.8629 15.3057 24.5224 16.6487 24.7897C17.9917 25.0569 19.3837 24.92 20.6489 24.396C21.914 23.8721 22.9954 22.9848 23.7562 21.8463C24.517 20.7077 24.9231 19.3692 24.9231 17.9998C24.9231 17.6326 25.0689 17.2804 25.3286 17.0208C25.5883 16.7611 25.9405 16.6152 26.3077 16.6152C26.6749 16.6152 27.0271 16.7611 27.2868 17.0208C27.5464 17.2804 27.6923 17.6326 27.6923 17.9998C27.6924 19.9169 27.1241 21.791 26.0591 23.385C24.9941 24.979 23.4803 26.2214 21.7092 26.955C19.938 27.6887 17.9891 27.8806 16.1089 27.5066C14.2287 27.1325 12.5016 26.2093 11.1461 24.8537Z" fill="black"/>
<path d="M22.9278 21.9213C22.7766 22.0222 22.6069 22.0923 22.4285 22.1276C22.2501 22.163 22.0665 22.1628 21.8882 22.1272C21.7099 22.0916 21.5403 22.0212 21.3892 21.9201C21.238 21.8189 21.1083 21.689 21.0074 21.5377C20.9065 21.3864 20.8363 21.2168 20.801 21.0384C20.7657 20.86 20.7658 20.6764 20.8014 20.4981C20.837 20.3197 20.9074 20.1502 21.0086 19.999C21.1097 19.8479 21.2396 19.7182 21.3909 19.6173L25.5448 16.848C25.8503 16.6442 26.2243 16.5701 26.5844 16.6421C26.9446 16.714 27.2614 16.926 27.4652 17.2316C27.669 17.5371 27.7431 17.9111 27.6712 18.2712C27.5993 18.6314 27.3872 18.9482 27.0817 19.152L22.9278 21.9213Z" fill="black"/>
<path d="M30.2289 21.3852C30.3298 21.5365 30.4 21.7061 30.4353 21.8845C30.4707 22.0629 30.4705 22.2465 30.4349 22.4248C30.3993 22.6032 30.3289 22.7727 30.2277 22.9239C30.1266 23.075 29.9967 23.2047 29.8454 23.3056C29.6941 23.4066 29.5244 23.4767 29.346 23.512C29.1677 23.5474 28.9841 23.5472 28.8057 23.5116C28.6274 23.476 28.4578 23.4056 28.3067 23.3045C28.1556 23.2033 28.0258 23.0734 27.9249 22.9221L25.1557 18.7683C25.0548 18.617 24.9846 18.4473 24.9493 18.2689C24.914 18.0905 24.9141 17.9069 24.9497 17.7286C25.0217 17.3684 25.2337 17.0516 25.5392 16.8478C25.8448 16.644 26.2187 16.5699 26.5789 16.6418C26.7572 16.6774 26.9268 16.7478 27.0779 16.849C27.2291 16.9501 27.3588 17.0801 27.4597 17.2313L30.2289 21.3852ZM24.7251 10.8704C24.8573 10.9981 24.9628 11.1509 25.0354 11.3199C25.1079 11.4888 25.1461 11.6705 25.1477 11.8543C25.1493 12.0382 25.1143 12.2205 25.0447 12.3907C24.9751 12.5608 24.8722 12.7154 24.7422 12.8454C24.6122 12.9754 24.4576 13.0782 24.2875 13.1479C24.1173 13.2175 23.935 13.2525 23.7511 13.2509C23.5673 13.2493 23.3856 13.2111 23.2167 13.1386C23.0477 13.066 22.895 12.9605 22.7672 12.8283C21.799 11.8598 20.5653 11.2002 19.2222 10.933C17.8791 10.6658 16.4869 10.8029 15.2217 11.327C13.9565 11.8511 12.8752 12.7386 12.1145 13.8773C11.3538 15.0161 10.9479 16.3548 10.9482 17.7243C10.9482 18.0915 10.8023 18.4437 10.5426 18.7033C10.2829 18.963 9.93076 19.1089 9.56354 19.1089C9.19632 19.1089 8.84413 18.963 8.58447 18.7033C8.3248 18.4437 8.17892 18.0915 8.17892 17.7243C8.17879 15.8072 8.74715 13.9332 9.81215 12.3391C10.8771 10.7451 12.3909 9.50272 14.1621 8.76908C15.9332 8.03543 17.8821 7.84349 19.7623 8.21753C21.6425 8.59157 23.3696 9.51478 24.7251 10.8704Z" fill="black"/>
<path d="M12.9447 13.8031C13.2503 13.5993 13.6243 13.5252 13.9844 13.5971C14.3446 13.6691 14.6614 13.8811 14.8652 14.1866C15.069 14.4922 15.1431 14.8662 15.0712 15.2263C14.9993 15.5865 14.7872 15.9033 14.4817 16.1071L10.3264 18.8763C10.1752 18.9773 10.0055 19.0474 9.82709 19.0827C9.64871 19.1181 9.46511 19.1179 9.28678 19.0823C9.10845 19.0467 8.93888 18.9763 8.78775 18.8752C8.63662 18.774 8.5069 18.6441 8.40598 18.4928C8.20217 18.1873 8.12808 17.8133 8.20001 17.4531C8.27194 17.093 8.48399 16.7761 8.78952 16.5723L12.9434 13.8031H12.9447Z" fill="black"/>
<path d="M5.6423 14.3388C5.54139 14.1875 5.47126 14.0178 5.43592 13.8394C5.40058 13.6611 5.40072 13.4775 5.43633 13.2991C5.47195 13.1208 5.54234 12.9512 5.64349 12.8001C5.74463 12.649 5.87456 12.5193 6.02584 12.4183C6.17712 12.3174 6.3468 12.2473 6.52519 12.2119C6.70357 12.1766 6.88717 12.1767 7.06551 12.2124C7.24384 12.248 7.41341 12.3184 7.56453 12.4195C7.71566 12.5207 7.84539 12.6506 7.9463 12.8019L10.7155 16.9557C10.9193 17.2612 10.9934 17.6352 10.9215 17.9954C10.8496 18.3555 10.6375 18.6724 10.332 18.8762C10.0265 19.08 9.65249 19.1541 9.29233 19.0822C8.93218 19.0102 8.61534 18.7982 8.41153 18.4926L5.6423 14.3388Z" fill="black"/>
</mask>
<g mask="url(#mask0_52_1728)">
<path d="M18 36C27.9411 36 36 27.9411 36 18C36 8.05888 27.9411 0 18 0C8.05888 0 0 8.05888 0 18C0 27.9411 8.05888 36 18 36Z" fill="#598447"/>
</g>
</g>
<defs>
<clipPath id="clip0_52_1728">
<rect width="36" height="36" fill="white"/>
</clipPath>
</defs>
</svg>
