<svg width="57" height="47" viewBox="0 0 57 47" fill="none" xmlns="http://www.w3.org/2000/svg">
<path d="M13.248 23.848C14.4427 22.9093 16.0213 22.44 17.984 22.44C19.9467 22.44 21.568 23.5067 22.848 25.64C24.128 27.7733 24.768 30.8027 24.768 34.728C24.768 38.568 23.9573 41.4693 22.336 43.432C20.7147 45.3093 17.5573 46.248 12.864 46.248C8.256 46.248 4.58667 44.8827 1.856 42.152C1.25867 39.08 0.96 35.496 0.96 31.4C0.96 17.9173 4.71467 7.76266 12.224 0.935997L21.824 8.616C16.8747 12.712 13.8453 17.704 12.736 23.592L13.248 23.848ZM45.248 23.848C46.4427 22.9093 48.0213 22.44 49.984 22.44C51.9467 22.44 53.568 23.5067 54.848 25.64C56.128 27.7733 56.768 30.8027 56.768 34.728C56.768 38.568 55.9573 41.4693 54.336 43.432C52.7147 45.3093 49.5573 46.248 44.864 46.248C40.256 46.248 36.5867 44.8827 33.856 42.152C33.2587 39.08 32.96 35.496 32.96 31.4C32.96 17.9173 36.7147 7.76266 44.224 0.935997L53.824 8.616C48.8747 12.712 45.8453 17.704 44.736 23.592L45.248 23.848Z" fill="#598447" fill-opacity="0.5"/>
</svg>
