<svg width="50" height="50" viewBox="0 0 50 50" fill="none" xmlns="http://www.w3.org/2000/svg">
<g clip-path="url(#clip0_222_4976)">
<path d="M50 25.1523C50 11.3461 38.8062 0.152344 25 0.152344C11.1937 0.152344 0 11.3461 0 25.1523C0 37.6315 9.14167 47.9732 21.0938 49.8482V32.3794H14.7458V25.1503H21.0938V19.6461C21.0938 13.3815 24.8271 9.91901 30.5375 9.91901C33.2708 9.91901 36.1333 10.4086 36.1333 10.4086V16.5607H32.9792C29.8729 16.5607 28.9042 18.4878 28.9042 20.4648V25.1523H35.8375L34.7292 32.3815H28.9042V49.8503C40.8583 47.9732 50 37.6294 50 25.1523Z" fill="#598447"/>
</g>
<defs>
<clipPath id="clip0_222_4976">
<rect width="50" height="50" fill="white"/>
</clipPath>
</defs>
</svg>
