<svg width="24" height="23" viewBox="0 0 24 23" fill="none" xmlns="http://www.w3.org/2000/svg">
<path fill-rule="evenodd" clip-rule="evenodd" d="M12 23C18.3513 23 23.5 17.8513 23.5 11.5C23.5 5.14873 18.3513 0 12 0C5.64873 0 0.5 5.14873 0.5 11.5C0.5 17.8513 5.64873 23 12 23ZM17.4 6.29999C17.5657 6.07907 17.5209 5.76567 17.3 5.59999C17.0791 5.43431 16.7657 5.47909 16.6 5.70001L13.25 10.1669L10.125 6.00001L10.125 6C10.0086 5.84475 9.85759 5.71875 9.68402 5.63197C9.51045 5.54518 9.31906 5.5 9.125 5.5H6.5C6.31061 5.5 6.13748 5.607 6.05278 5.7764C5.96809 5.94579 5.98637 6.1485 6.10001 6.30001L11.125 12.9998L7.59999 17.7C7.43431 17.9209 7.47909 18.2343 7.70001 18.4C7.92093 18.5657 8.23433 18.5209 8.40001 18.3L11.75 13.8331L14.875 18C14.9914 18.1552 15.1424 18.2812 15.316 18.368C15.4896 18.4548 15.6809 18.5 15.875 18.5H18.5C18.6894 18.5 18.8625 18.393 18.9472 18.2236C19.0319 18.0542 19.0136 17.8515 18.9 17.7L13.875 11.0002L17.4 6.29999ZM12.15 12.6997L7.50002 6.5H9.125C9.16381 6.5 9.20209 6.50904 9.2368 6.52639C9.27151 6.54375 9.30171 6.56895 9.32499 6.59999L9.325 6.6L12.85 11.3002L12.85 11.3003L17.5 17.5H15.875C15.8362 17.5 15.7979 17.491 15.7632 17.4736C15.7285 17.4562 15.6983 17.431 15.675 17.4L12.15 12.6998L12.15 12.6997Z" fill="#598447"/>
</svg>
