<svg width="25" height="24" viewBox="0 0 25 24" fill="none" xmlns="http://www.w3.org/2000/svg">
<g clip-path="url(#clip0_199_3279)">
<path d="M12.5 0.480469C6.13758 0.480469 0.97998 5.63807 0.97998 12.0005C0.97998 18.3629 6.13758 23.5205 12.5 23.5205C18.8624 23.5205 24.02 18.3629 24.02 12.0005C24.02 5.63807 18.8624 0.480469 12.5 0.480469ZM9.67998 16.7753H7.34718V9.26807H9.67998V16.7753ZM8.49918 8.34647C7.76238 8.34647 7.28598 7.82447 7.28598 7.17887C7.28598 6.52007 7.77678 6.01367 8.52918 6.01367C9.28158 6.01367 9.74238 6.52007 9.75678 7.17887C9.75678 7.82447 9.28158 8.34647 8.49918 8.34647ZM18.2 16.7753H15.8672V12.6149C15.8672 11.6465 15.5288 10.9889 14.6852 10.9889C14.0408 10.9889 13.658 11.4341 13.4888 11.8625C13.4264 12.0149 13.4108 12.2309 13.4108 12.4457V16.7741H11.0768V11.6621C11.0768 10.7249 11.0468 9.94127 11.0156 9.26687H13.0424L13.1492 10.3097H13.196C13.5032 9.82007 14.2556 9.09767 15.5144 9.09767C17.0492 9.09767 18.2 10.1261 18.2 12.3365V16.7753Z" fill="#598447"/>
</g>
<defs>
<clipPath id="clip0_199_3279">
<rect width="24" height="24" fill="white" transform="translate(0.5)"/>
</clipPath>
</defs>
</svg>
